<?xml version="1.0" encoding="UTF-8"?>
<svg xmlns="http://www.w3.org/2000/svg" id="Layer_1" data-name="Layer 1" version="1.1" viewBox="0 0 139 42">
  <defs>
    <style>
      .cls-1 {
        fill: #fff;
        stroke-width: 0px;
      }
    </style>
  </defs>
  <path class="cls-1" d="M0,1.4h.5c4.7,0,9.3,0,14,0,4.8,0,9.5,1.5,13.3,4.5,3.1,2.5,5.3,6,6.2,9.8,1.1,4.5,1,9.2-.5,13.5-1.9,5.8-6,9.6-11.8,11.6-2.3.8-4.6,1.2-7,1.1-4.7,0-9.4,0-14.1,0H0S0,1.4,0,1.4ZM8.7,34.6h3.3c2,0,4-.2,5.9-.8,3.5-1,6.2-3.7,7.2-7.2.8-2.6.9-5.4.4-8.1-.7-4.7-4.3-8.4-8.9-9.2-2.6-.4-5.2-.5-7.8-.4,0,0,0,0-.1,0v25.6h0Z"></path>
  <path class="cls-1" d="M51.2,24.1c-1.2,1.3-2.3,2.5-3.5,3.8-.6.7-1.2,1.3-1.8,2-.2.3-.3.6-.3.9,0,3.5,0,7.1,0,10.6v.7h-8.8V1.4h8.7v16.9c.2-.2.3-.3.4-.4,4.9-5.4,9.7-10.8,14.6-16.2.2-.3.5-.4.9-.4,3.2,0,6.5,0,9.7,0h.7l-14.7,16.1,16,24.4c-.2,0-.4,0-.5,0-3.3,0-6.6,0-9.9,0-.3,0-.6-.2-.8-.5-3.5-5.7-6.9-11.3-10.4-16.9-.1-.2-.2-.3-.4-.6"></path>
  <path class="cls-1" d="M89.1,21.9c.3,3.1.5,6.2.8,9.2,1.5-.3,3-.6,4.4-1,1.5-.4,3-.6,4.6-.6,1.1.1,2.1.4,3.1,1l-2.7,7.2c-.7-.3-1.4-.5-2.1-.7-1.4-.2-2.9,0-4.2.4-.7.2-1.4.4-2,.6-.3,0-.4.2-.4.5,0,.9.2,1.7.2,2.6,0,.3,0,.6,0,1h-6.6c0-.9-.2-1.8-.2-2.6-1.3-.1-2.7-.2-3.9-.4-4.9-.9-9.1-3.9-11.6-8.1-2.7-4.2-2.4-9.7.8-13.5,1.5-2.2,3.7-3.7,6.3-4.3,1.9-.4,3.8-.4,5.7-.1h.8c0-.9.1-1.8.2-2.8.2-4.5,3.1-8.4,7.4-9.7,2.3-.7,4.9-.6,7.1.5,2.8,1.1,5.1,3.2,6.6,5.8,2.1,3.9,1.6,7.6-.9,11.1-1.3,2-3.2,3.4-5.4,4.1-2,.5-4,.6-6,.2-.5,0-1-.2-1.6-.2M83.3,32.2c-.3-4.1-.7-8-1-12.1-1.1,0-2.2,0-3.3,0-1.9,0-3.6,1.3-4.3,3-.8,1.6-.6,3.5.5,4.8,1.3,1.8,3.2,3.1,5.3,3.7.9.2,1.8.4,2.7.6M88.6,14.7c1.7.5,3.4.6,5.1.5,2.1-.3,3.7-2.1,3.8-4.3-.3-2.2-2-3.9-4.3-4.1-1.7,0-3.2,1-3.9,2.6-.6,1.7-.9,3.5-.8,5.3"></path>
  <path class="cls-1" d="M139,42c-3,0-5.9,0-8.8,0-.2,0-.4-.3-.5-.5-.9-2.5-1.8-5-2.7-7.6,0-.5-.5-.8-1-.7-4.5,0-9,0-13.5,0-.4,0-.7.2-.8.5-.9,2.6-1.8,5.1-2.8,7.7-.1.4-.3.5-.7.5-2.7,0-5.4,0-8,0h-.5c0-.2.1-.4.2-.6,5-13.1,10-26.2,14.9-39.3,0-.4.5-.6.8-.6,2.4,0,4.8,0,7.3,0,.3,0,.6.2.7.5,5,13.2,10,26.5,15.1,39.7,0,.1,0,.2.1.4M124.2,25.9l-4.6-13h-.1s-4.7,13-4.7,13h9.5,0Z"></path>
</svg>
