<svg width="241" height="34" viewBox="0 0 241 34" fill="none" xmlns="http://www.w3.org/2000/svg">
<path d="M28.3469 28.5418C24.6385 32.2502 19.5884 33.7976 14.7612 33.1821C17.5548 30.3886 20.3505 27.593 23.1462 24.7974L25.1883 22.7554C25.7996 22.144 26.1753 21.2355 26.1753 20.3695C26.1753 19.5034 25.8081 18.5546 25.1883 17.9835C23.8424 16.7481 21.7515 16.6505 20.4184 17.9835C18.5482 19.8536 16.6781 21.7237 14.8079 23.5938C12.475 25.9267 10.1421 28.2574 7.8113 30.5902C6.9261 30.0023 6.08761 29.3187 5.30856 28.5376C-1.05337 22.1759 -1.05337 11.8596 5.30856 5.49785C9.0149 1.79374 14.065 0.246298 18.8943 0.86188L8.46723 11.2886C7.85587 11.8999 7.47802 12.8084 7.47802 13.6745C7.47802 14.5405 7.84526 15.4894 8.46723 16.0604C9.81306 17.2958 11.904 17.3934 13.2371 16.0604C15.0818 14.2158 16.9286 12.369 18.7733 10.5244C21.1316 8.1682 23.4879 5.80989 25.8463 3.45157C26.7315 4.03956 27.57 4.72306 28.3491 5.50422C34.711 11.8659 34.711 22.1822 28.3491 28.544L28.3469 28.5418Z" fill="white"/>
<path d="M51.5501 4.60107H46.6973V29.4494H51.5501V4.60107Z" fill="white"/>
<path d="M86.4336 4.60107H81.5449V29.4494H86.4336V4.60107Z" fill="white"/>
<path d="M67.5835 14.8846C64.1872 14.0567 62.125 13.4199 62.125 11.5583C62.125 9.69668 63.9297 8.56953 67.0769 8.56953C69.1603 8.56953 71.3028 9.21059 73.1118 10.3738L73.8675 10.8578L75.5456 6.76524L75.0474 6.42136C73.04 5.02887 70.0617 4.19678 67.0769 4.19678C59.8917 4.19678 57.3418 8.23627 57.3418 11.6941C57.3418 17.1282 62.2157 18.317 66.1313 19.2722C69.5086 20.0958 71.5582 20.7305 71.5582 22.5857C71.5582 24.4409 69.7176 25.4747 66.507 25.4747C63.801 25.4747 60.9577 24.4791 59.2648 22.9381L58.5176 22.2588L56.6094 26.3025L57.0125 26.6783C59.0727 28.6035 62.8004 29.8474 66.5091 29.8474C73.7704 29.8474 76.3456 25.8271 76.3456 22.384C76.3456 17.0179 71.4886 15.8355 67.5857 14.8867L67.5835 14.8846Z" fill="white"/>
<path d="M132.7 4.57861H127.848V29.4609H143.624V24.5808H132.7V4.57861Z" fill="white"/>
<path d="M157.664 4.14795C154.308 4.14795 151.025 5.53407 148.659 7.9497C146.274 10.4226 144.961 13.6449 144.961 17.0221C144.961 20.3993 146.274 23.6216 148.659 26.0945C151.023 28.5462 154.221 29.8963 157.664 29.8963C161.107 29.8963 164.3 28.5462 166.702 26.0945C169.088 23.6216 170.401 20.3972 170.401 17.0221C170.401 13.647 169.086 10.4184 166.694 7.94121C164.262 5.49374 161.054 4.14795 157.664 4.14795ZM165.482 17.0221C165.482 19.1469 164.676 21.1295 163.205 22.6069C161.755 24.097 159.735 24.9525 157.664 24.9525C155.593 24.9525 153.658 24.1162 152.178 22.5963C150.696 21.138 149.879 19.1597 149.879 17.0242C149.879 14.8888 150.7 12.9062 152.191 11.4394C153.664 9.92805 155.608 9.09383 157.664 9.09383C159.72 9.09383 161.757 9.9514 163.211 11.4437C164.676 12.9147 165.482 14.8952 165.482 17.0221Z" fill="white"/>
<path d="M190.423 15.7086C192.104 13.9595 192.507 11.4356 191.496 8.93295C190.404 6.19255 188.095 4.61963 185.157 4.61963H174.744V29.4679H185.986C190.905 29.4679 193.478 25.5452 193.478 21.6691C193.478 19.1325 192.367 16.9652 190.425 15.7107L190.423 15.7086ZM179.561 13.9022V9.33201H185.155C186.506 9.33201 187.111 10.4592 187.111 11.5757C187.111 12.1998 186.919 12.7984 186.582 13.2187C186.219 13.6729 185.716 13.9022 185.087 13.9022H179.561ZM188.623 21.7031C188.623 23.1402 187.797 24.6897 185.984 24.6897H179.561V18.7504H185.984C187.797 18.7504 188.623 20.2809 188.623 21.7052V21.7031Z" fill="white"/>
<path d="M205.964 4.28662L196.039 29.4703H201.276L203.535 23.5607H211.934L214.137 29.4172L214.158 29.4724H219.364L209.439 4.28874H205.964V4.28662ZM210.135 18.8802H205.333L207.735 12.5354L210.135 18.8802Z" fill="white"/>
<path d="M229.399 24.5808V4.57861H224.549V29.4609H240.325V24.5808H229.399Z" fill="white"/>
<path d="M112.415 9.15731C114.802 9.15731 116.97 10.0701 118.214 11.5963L118.737 12.2395L122.298 8.65847L121.823 8.1278C119.596 5.63788 116.166 4.21143 112.415 4.21143C105.344 4.21143 100.01 9.73256 100.01 17.0537C100.01 24.3749 105.342 29.8621 112.415 29.8621C115.925 29.8621 119.123 28.8368 121.663 26.8988L121.958 26.6717V16.7693H116.82V23.7063C115.607 24.5744 114.043 25.0521 112.413 25.0521C108.145 25.0521 104.926 21.6154 104.926 17.0559C104.926 12.4963 108.145 9.15943 112.413 9.15943L112.415 9.15731Z" fill="white"/>
</svg>
