<?xml version="1.0" encoding="UTF-8"?>
<svg xmlns="http://www.w3.org/2000/svg" id="Layer_1" data-name="Layer 1" version="1.1" viewBox="0 0 124 15">
  <defs>
    <style>
      .cls-1 {
        fill: #fff;
        stroke-width: 0px;
      }
    </style>
  </defs>
  <path class="cls-1" d="M.9,0h4.9c.8,0,1.7,0,2.5.2,2.1.5,3.5,2.5,3.4,4.7.2,2.2-1.4,4.2-3.5,4.6-.8.2-1.6.2-2.5.2h-2.1v5H.9V0ZM3.7,2.4v5.1h2c.5,0,1,0,1.6-.1,1.1-.3,1.9-1.3,1.8-2.5,0-.7-.2-1.4-.7-1.9-.7-.5-1.6-.7-2.5-.6,0,0-2.1,0-2.1,0ZM36.8,12.4c-1.1,1.7-3,2.7-5.1,2.6-2.8.1-5.2-2.1-5.4-4.9,0-.2,0-.4,0-.7,0-3.5,2.2-5.5,5.2-5.5,1.6,0,3.2.6,4.1,2,.7,1.2,1.1,2.6,1.1,4.1h-7.7c.1,1.5,1.4,2.7,3,2.6,1.1,0,2.1-.5,2.7-1.4,0,0,2.1,1.2,2.1,1.2ZM34,8.2c0-1.2-1-2.2-2.3-2.2,0,0,0,0,0,0-1.3,0-2.4.9-2.5,2.2,0,0,4.9,0,4.9,0ZM15.5,2.7h-2.5V.2h2.5s0,2.5,0,2.5ZM15.5,14.7h-2.5V4.3h2.5v10.4ZM51.3,11.8h-5.5l-.9,2.9h-2.9L47,0h3.1l5,14.7h-2.9l-.8-2.9h0ZM50.6,9.4l-2-6.8-2,6.8h4.1ZM58.6,4.3v1.5c.6-1.2,2-1.9,3.3-1.7v2.6c-.8,0-1.6.2-2.2.6-1.1.8-1.1,1.9-1.1,3.6v3.8h-2.4V4.3s2.4,0,2.4,0ZM66.8,6.1v4.7c0,1.3,0,1.9,1.2,1.9.4,0,.7,0,1-.1v2.1c-.6.1-1.2.2-1.8.2-.5,0-2.3,0-2.7-1.3-.2-.7-.2-1.4-.2-2.1v-5.3h-1.5v-1.8h1.5V.6h2.5v3.7h2.2v1.8h-2.2s0,0,0,0ZM82.2,4.3h2.6l-3.1,10.4h-2.5l-1.9-6.6-2,6.6h-2.5l-3-10.4h2.6l1.8,7.1,1.9-7.1h2.2l1.9,7.1s1.9-7.1,1.9-7.1ZM90.1,15c-2.9,0-5.3-2.2-5.4-5.1,0-.2,0-.3,0-.5.1-3,2.6-5.2,5.5-5.1,3,.1,5.2,2.6,5.1,5.5-.1,2.8-2.4,5.1-5.3,5.1M90,6.2c-1.6,0-2.7,1.2-2.7,3.2s1.3,3.3,2.8,3.3,2.7-1.6,2.7-3.3c0-1.7-1-3.2-2.8-3.2M98.9,4.3v1.5c.6-1.2,2-1.9,3.3-1.7v2.6c-.8,0-1.6.2-2.2.6-1.1.8-1.1,1.9-1.1,3.6v3.8h-2.4V4.3h2.4ZM105.7,0v8.3l4.1-4h3.2l-4,4,4.4,6.4h-3l-3.1-4.7-1.5,1.4v3.2h-2.5V0s2.5,0,2.5,0ZM115.3,11.6c.7.9,1.8,1.4,3,1.3,1.4,0,2.1-.7,2.1-1.2s-.7-.8-1.1-.9c-.4,0-2.1-.4-2.4-.5-2.5-.6-2.9-2-2.9-3,0-1.8,1.6-3.4,4.4-3.4,1.2,0,2.4.3,3.4,1,.4.3.8.6,1.1.9l-1.8,1.6c-.5-1.1-1.7-1.7-2.8-1.6-1.2,0-1.7.5-1.7,1.1s.8,1,2.1,1.2c2.2.4,2.8.5,3.4,1,.7.5,1.1,1.3,1.1,2.2,0,1.6-1.5,3.6-4.7,3.6-1.8,0-3.6-.6-5-1.9l1.9-1.5s0,0,0,0ZM23.8,14.6l-2.1-3.3-2.1,3.3h-3l3.6-5.5-3.1-4.8h2.9l1.7,2.6,1.6-2.6h3l-3.1,4.8,3.5,5.5h-2.8ZM38.2,0h2.5v14.6h-2.5V0Z"></path>
</svg>
