<?xml version="1.0" encoding="UTF-8"?>
<svg xmlns="http://www.w3.org/2000/svg" id="Layer_1" data-name="Layer 1" version="1.1" viewBox="0 0 86.9 44.9">
  <defs>
    <style>
      .cls-1 {
        fill: #fff;
        stroke-width: 0px;
      }
    </style>
  </defs>
  <path class="cls-1" d="M43.5,13.1c3.6,0,7.2-.3,10.7-.9-.2-2.3-.4-4.5-.5-6.6,0-1.2-.6-2.4-1.6-3.2-.9-.7-1.9-1.3-3-1.7C47.3.2,45.4,0,43.5,0h0c-1.9,0-3.8.2-5.7.8-1.1.4-2.1.9-3,1.7-1,.8-1.6,1.9-1.6,3.2-.1,2.1-.3,4.3-.5,6.6,3.6.6,7.1.8,10.7.9h0Z"></path>
  <path class="cls-1" d="M57.5,11.3c-1.1,0-2.2,0-3.3.1-2.7.4-5.4.9-8.1,1.2-1.8.2-3.5.2-5.3,0-2.7-.3-5.4-.8-8.1-1.2-1.1-.2-2.2-.2-3.3-.1-1.7.2-2.2,1.4-1.1,2.7.9,1,1.9,1.9,2.9,2.7.7.6,1.5,1,2.3,1.6v-.4c.3-1.5.8-2.1,2.3-2.3,1.5-.2,3.1-.4,4.6-.4,1,0,2,0,3.1,0h0c1,0,2,0,3.1,0,1.5,0,3.1.2,4.6.4,1.5.2,2,.8,2.2,2.3,0,.1,0,.2,0,.4.8-.6,1.6-1,2.3-1.6,1-.8,2-1.7,2.9-2.7,1.1-1.2.6-2.5-1.1-2.7Z"></path>
  <path class="cls-1" d="M43.5,18.6h0c-.7,0-1.4,0-2-.2-1.2-.2-2.4-.3-3.6-.4-1.3,0-2.6,0-3.9,0-.3,0-.7,0-1,0,0,0-.2,0-.3,0-.2,0-.4.2-.4.4-.1.6,0,1.3.2,1.9.4.8.8,1.6,1,2.5.2.8.7,1.5,1.3,2,.6.4,1.2.7,1.9.7.6,0,1.3,0,1.9,0,1.1-.1,2.1-.7,2.8-1.7.3-.5.5-1,.6-1.5.1-.6.3-1.1.6-1.6,0-.1.2-.3.3-.4.3-.3.8-.4,1.2,0,0,0,0,0,0,0,.1.1.2.3.3.4.3.5.5,1,.6,1.6.1.5.3,1,.6,1.5.6.9,1.7,1.6,2.8,1.7.3,0,.6,0,.8,0,.4,0,.7,0,1.1,0,.7,0,1.4-.3,1.9-.7.6-.5,1.1-1.2,1.3-2,.3-.9.6-1.7,1-2.5.3-.6.4-1.2.2-1.9,0-.2-.2-.4-.4-.4h-.3c-.3,0-.7,0-1-.1-1.3,0-2.6,0-3.9,0-1.2,0-2.4.1-3.6.4M52.8,23.1c-.3.8-.9,1.4-1.7,1.7-1.1.4-2.2.4-3.3,0-.7-.2-1.3-.7-1.6-1.4-.4-.8-.6-1.7-.7-2.5,0-.7.4-1.3,1-1.5,1-.4,2-.6,3.1-.6.8,0,1.6.1,2.3.4.7.2,1.1.9,1.2,1.6,0,.8,0,1.7-.3,2.4h0ZM41.6,20.9c0,.9-.3,1.8-.7,2.6-.3.7-.9,1.2-1.6,1.4-1.1.4-2.2.4-3.3,0-.8-.2-1.5-.9-1.7-1.7-.3-.8-.4-1.6-.3-2.4,0-.7.5-1.3,1.2-1.6.7-.3,1.5-.4,2.3-.4,1.1,0,2.1.2,3.1.6.6.2,1,.8,1,1.5Z"></path>
  <path class="cls-1" d="M3.6,30.9l2.3,8.7,2.8-8.7h2.8l2.6,8.7,2.5-8.7h3.6l-4.3,13.4h-3.6l-2.4-7.8-2.6,7.8h-3.5L0,30.9h3.6Z"></path>
  <path class="cls-1" d="M35,42.6c-3,2.7-7.5,2.7-10.6,0-2.8-2.7-2.8-7.1-.1-9.9,0,0,0,0,.1-.1,3-2.7,7.5-2.7,10.6,0,2.8,2.7,2.8,7.1.1,9.9,0,0,0,0-.1.1ZM27,35.1c-.7.7-1.1,1.6-1.1,2.6,0,.9.4,1.8,1.1,2.5.7.7,1.7,1.1,2.7,1.1,2,0,3.7-1.5,3.8-3.4,0-1-.3-2-1.1-2.7-.7-.7-1.7-1.1-2.7-1.1-1,0-2,.4-2.7,1.1h0Z"></path>
  <path class="cls-1" d="M47.1,36.7h6.9c0,2.7-.5,4.5-2.1,6-1.3,1.2-3,1.8-4.7,1.7-1.9,0-3.8-.6-5.1-2-1.3-1.3-2-3-1.9-4.8,0-1.9.7-3.7,2-5,2.4-2.2,5.9-2.6,8.8-1.1,1,.7,1.9,1.6,2.4,2.8l-3.3,1.4c-.2-.5-.5-1-1-1.3-.5-.4-1.2-.7-1.9-.7-.9,0-1.7.3-2.3.9-.8.8-1.2,1.9-1.2,3.1,0,1.1.4,2.1,1.1,2.9.6.7,1.5,1.1,2.5,1,.7,0,1.4-.2,1.9-.6.4-.4.7-.9.8-1.5h-2.9v-2.7Z"></path>
  <path class="cls-1" d="M65.6,42.1h-4.9l-.9,2.2h-3.7l5.1-13.4h3.8l5,13.4h-3.7l-.8-2.2ZM64.6,39.4l-1.5-4.3-1.5,4.3h3Z"></path>
  <path class="cls-1" d="M73.5,44.3v-13.4h3.5l6.4,8.2v-8.2h3.5v13.4h-3.5l-6.4-8.2v8.2h-3.5Z"></path>
</svg>
